<svg id="Layer_1" enable-background="new 0 0 512 512" height="512" viewBox="0 0 512 512" width="512" xmlns="http://www.w3.org/2000/svg">
<style type="text/css">
	.st0{fill:#f1f1f1;}
	.st1{fill:none;stroke:#FA5A7B;stroke-width:1.4;stroke-linecap:round;stroke-linejoin:round;stroke-miterlimit:10;}
	.st2{fill:none;stroke:#313131;stroke-width:1.4;stroke-linecap:round;stroke-linejoin:round;stroke-miterlimit:10;}
</style>
<path class="st0" d="m437.02 74.98c-48.353-48.351-112.64-74.98-181.02-74.98s-132.667 26.629-181.02 74.98c-48.351 48.353-74.98 112.64-74.98 181.02s26.629 132.667 74.98 181.02c48.353 48.351 112.64 74.98 181.02 74.98s132.667-26.629 181.02-74.98c48.351-48.353 74.98-112.64 74.98-181.02s-26.629-132.667-74.98-181.02zm-161.02 396.085v-42.065c0-11.046-8.954-20-20-20s-20 8.954-20 20v42.065c-103.173-9.518-185.547-91.893-195.066-195.065h42.066c11.046 0 20-8.954 20-20s-8.954-20-20-20h-42.066c9.519-103.173 91.893-185.547 195.066-195.066v41.066c0 11.046 8.954 20 20 20s20-8.954 20-20v-41.066c103.173 9.519 185.547 91.893 195.066 195.066h-42.066c-11.046 0-20 8.954-20 20s8.954 20 20 20h42.066c-9.519 103.172-91.893 185.547-195.066 195.065zm71-105.232c0 11.046-8.954 20-20 20s-20-8.954-20-20c0-24.139-19.769-43.778-44.068-43.778h-12.864c-24.299 0-44.068 19.639-44.068 43.778 0 11.046-8.954 20-20 20s-20-8.954-20-20c0-46.195 37.713-83.778 84.068-83.778h12.864c46.355.001 84.068 37.583 84.068 83.778zm-90.5-112.777c33.084 0 60-26.916 60-60s-26.916-60-60-60-60 26.916-60 60 26.916 60 60 60zm0-80c11.028 0 20 8.972 20 20s-8.972 20-20 20-20-8.972-20-20 8.972-20 20-20z"/></svg>