<svg height="511pt" viewBox="0 0 511.99994 511" width="511pt" xmlns="http://www.w3.org/2000/svg"><path d="m509.132812 408.183594-235.9375-397.898438c-7.734374-13.039062-26.65625-13.054687-34.398437 0l-235.941406 397.898438c-9.367188 15.804687 5.847656 34.859375 23.328125 29.230468l173.21875-55.78125 37.558594 116.847657c5.925781 18.429687 32.132812 18.46875 38.070312 0l37.558594-116.847657 173.214844 55.78125c17.414062 5.605469 32.738281-13.359374 23.328124-29.230468zm-273.132812-314.777344v234.425781c-27.671875 8.914063-150.359375 48.421875-171.816406 55.332031zm19.996094 333.613281-18.527344-57.644531 18.527344-5.96875 18.527344 5.96875zm19.996094-99.1875v-234.425781l171.816406 289.757812c-21.457032-6.910156-144.144532-46.417968-171.816406-55.332031zm0 0"/></svg>