<?xml version="1.0" encoding="utf-8"?>
<!-- Generator: Adobe Illustrator 21.0.0, SVG Export Plug-In . SVG Version: 6.00 Build 0)  -->
<svg version="1.1" id="Слой_1" xmlns="http://www.w3.org/2000/svg" xmlns:xlink="http://www.w3.org/1999/xlink" x="0px" y="0px"
	 viewBox="0 0 20 20" style="enable-background:new 0 0 20 20;" xml:space="preserve">
<style type="text/css">
	.st0{fill:#4f4f83;}
	.st1{fill:#f5f4f2;}
</style>
<path class="st0" d="M10.5,0c0,0-3.1,3.3-5.4,7.6c-1.8,3.3-3.2,7.3,0.4,10.6c3.4,3.1,8.4,1.9,10.3-1.3c1.5-2.7,1.2-5.8-1.3-8.6
	C11.7,4.8,10.7,3.3,10.5,0z"/>
<path class="st1" d="M6.2,12.3c0,0-1,2.5-0.2,3.9c0.9,1.5,2.3,2.1,3.2,1.6c0.9-0.4,1.1-1.8,0.1-2.3c-0.5-0.3-1.4-0.6-2.1-1.1
	C6.7,13.9,6.3,13.3,6.2,12.3z"/>
</svg>
