<svg id="Layer_1" enable-background="new 0 0 512 512" height="512" viewBox="0 0 512 512" width="512" xmlns="http://www.w3.org/2000/svg"><g><path d="m510.707 249.908c-98.977-204.435-411.264-203.39-509.415 0-1.724 3.879-1.724 8.306 0 12.185 98.95 204.392 411.156 203.516 509.415 0 1.724-3.88 1.724-8.306 0-12.185zm-478.897 6.093c16.744-30.936 49.526-71.766 99.027-98.915-45.533 54.958-45.525 142.88 0 197.827-49.596-27.2-82.342-68.085-99.027-98.912zm224.19 129.599c-71.462 0-129.6-58.138-129.6-129.6 7.119-171.932 252.108-171.882 259.2.001 0 71.461-58.138 129.599-129.6 129.599zm125.163-30.686c45.533-54.958 45.525-142.88 0-197.827 49.596 27.2 82.341 68.086 99.027 98.913-16.744 30.935-49.526 71.765-99.027 98.914z"/><path d="m256 62.133c8.284 0 15-6.716 15-15v-32.133c-.793-19.902-29.215-19.887-30 0v32.133c0 8.284 6.716 15 15 15z"/><path d="m256 449.867c-8.284 0-15 6.716-15 15v32.133c.793 19.902 29.215 19.887 30 0v-32.133c0-8.284-6.716-15-15-15z"/><path d="m68.66 89.874c5.857 5.857 15.354 5.858 21.213 0 5.857-5.858 5.857-15.355 0-21.213l-22.718-22.719c-5.857-5.857-15.355-5.858-21.213 0-5.857 5.858-5.857 15.355 0 21.213z"/><path d="m68.66 422.127-22.718 22.718c-5.858 5.858-5.858 15.355 0 21.213 5.856 5.857 15.355 5.859 21.213 0l22.718-22.718c5.858-5.858 5.858-15.355 0-21.213-5.857-5.858-15.355-5.858-21.213 0z"/><path d="m443.34 89.874 22.718-22.718c5.858-5.858 5.858-15.355 0-21.213s-15.355-5.857-21.213 0l-22.718 22.717c-5.858 5.858-5.858 15.355 0 21.213 5.867 5.867 15.363 5.849 21.213.001z"/><path d="m443.34 422.127c-5.857-5.858-15.355-5.858-21.213 0s-5.858 15.355 0 21.213l22.718 22.718c5.856 5.857 15.355 5.859 21.213 0 5.858-5.858 5.858-15.355 0-21.213z"/><path d="m256 192.8c-34.849 0-63.2 28.352-63.2 63.2 3.472 83.844 122.941 83.819 126.401 0-.001-34.849-28.352-63.2-63.201-63.2zm0 96.4c-18.307 0-33.2-14.894-33.2-33.2 1.824-44.045 64.583-44.032 66.4 0 0 18.307-14.893 33.2-33.2 33.2z"/></g></svg>