<svg id="Layer_1" enable-background="new 0 0 512 512" height="512" viewBox="0 0 512 512" width="512" xmlns="http://www.w3.org/2000/svg"><path d="m348 512h-184c-66.168 0-120-53.832-120-120v-272c0-66.168 53.832-120 120-120h184c66.168 0 120 53.832 120 120v272c0 66.168-53.832 120-120 120zm-184-472c-44.112 0-80 35.888-80 80v272c0 44.112 35.888 80 80 80h184c44.112 0 80-35.888 80-80v-272c0-44.112-35.888-80-80-80zm192 338.889c0-51.219-41.818-92.889-93.22-92.889h-13.56c-51.402 0-93.22 41.67-93.22 92.889 0 11.046 8.954 20 20 20s20-8.954 20-20c0-29.163 23.875-52.889 53.22-52.889h13.56c29.346 0 53.22 23.726 53.22 52.889 0 11.046 8.954 20 20 20s20-8.954 20-20zm-98-125.889c-39.701 0-72-32.299-72-72s32.299-72 72-72 72 32.299 72 72-32.299 72-72 72zm0-104c-17.645 0-32 14.355-32 32s14.355 32 32 32 32-14.355 32-32-14.355-32-32-32z"/></svg>