<?xml version="1.0" encoding="utf-8"?>
<!-- Generator: Adobe Illustrator 21.1.0, SVG Export Plug-In . SVG Version: 6.00 Build 0)  -->
<svg version="1.1" id="Слой_1" xmlns="http://www.w3.org/2000/svg" xmlns:xlink="http://www.w3.org/1999/xlink" x="0px" y="0px"
	 viewBox="0 0 30.2 30.2" style="enable-background:new 0 0 30.2 30.2;" xml:space="preserve">
<style type="text/css">
	.st0{opacity:0;fill:#FFFFFF;}
	.st1{fill:none;stroke:#FA5A7B;stroke-width:1.4;stroke-linecap:round;stroke-linejoin:round;stroke-miterlimit:10;}
	.st2{fill:#313131;stroke:#313131;stroke-width:1.4;stroke-linecap:round;stroke-linejoin:round;stroke-miterlimit:10;}
</style>
<g>
	<rect class="st0" width="30.2" height="30.2"/>
	<g>
		<path class="st2" d="M25.5,20.8c-0.7-1.1-1.3-1.1-1.3-4.9s-1.9-8.5-9.2-8.5S5.9,12.2,5.9,16s-0.7,3.7-1.3,4.9
			c-0.4,0.6-0.3,1.4-0.2,2c0.1,0.5,0.5,0.8,1,0.8h9.7h9.7c0.5,0,0.9-0.3,1-0.8C25.9,22.2,25.9,21.4,25.5,20.8z"/>
		<path class="st2" d="M17,7.4c0.4-0.4,0.6-1,0.6-1.6c0-1.4-1.1-2.5-2.5-2.5c-1.4,0-2.5,1.1-2.5,2.5c0,0.6,0.2,1.2,0.6,1.6"/>
		<path class="st2" d="M11.9,23.7c0,1.8,1.4,3.2,3.2,3.2c1.8,0,3.2-1.4,3.2-3.2"/>
	</g>
</g>
</svg>
