<?xml version="1.0" encoding="utf-8"?>
<!-- Generator: Adobe Illustrator 21.1.0, SVG Export Plug-In . SVG Version: 6.00 Build 0)  -->
<svg version="1.1" id="Слой_1" xmlns="http://www.w3.org/2000/svg" xmlns:xlink="http://www.w3.org/1999/xlink" x="0px" y="0px"
	 viewBox="0 0 30.2 30.2" style="enable-background:new 0 0 30.2 30.2;" xml:space="preserve">
<style type="text/css">
	.st0{opacity:0;fill:#FFFFFF;}
	.st1{fill:none;stroke:#FA5A7B;stroke-width:1.4;stroke-linecap:round;stroke-linejoin:round;stroke-miterlimit:10;}
	.st2{fill:#FA5A7B;}
	.st3{fill:none;stroke:#898989;stroke-width:1.4;stroke-linecap:round;stroke-linejoin:round;stroke-miterlimit:10;}
	.st4{fill:#898989;}
</style>
<g>
	<rect class="st0" width="30.2" height="30.2"/>
	<g>
		<path class="st3" d="M20.1,23h4.9c0.9,0,1.7-0.7,1.8-1.6c0.5-4.2,0.5-8.5,0-12.7c-0.1-0.9-0.9-1.6-1.8-1.6H19V6.2
			C19,5.6,18.4,5,17.7,5h-5.3c-0.7,0-1.2,0.5-1.2,1.2v0.9H5.1c-0.9,0-1.7,0.7-1.8,1.6c-0.5,4.2-0.5,8.5,0,12.7
			C3.4,22.3,4.2,23,5.1,23H10"/>
		<circle class="st3" cx="15.1" cy="17.9" r="7.2"/>
		<path class="st3" d="M15.1,21.6c-2,0-3.7-1.7-3.7-3.7c0-1.2,0.6-2.3,1.4-2.9"/>
	</g>
</g>
</svg>
