<?xml version="1.0" encoding="utf-8"?>
<svg version="1.1" xmlns="http://www.w3.org/2000/svg" xmlns:xlink="http://www.w3.org/1999/xlink" x="0px" y="0px" viewBox="0 0 1000 1000" enable-background="new 0 0 1000 1000" xml:space="preserve">
<g>
<style type="text/css">
	.st0{opacity:0;fill:#FFFFFF;}
	.st1{fill:none;stroke:#FA5A7B;stroke-width:1.4;stroke-linecap:round;stroke-linejoin:round;stroke-miterlimit:10;}
	.st2{fill:#fff;}
	.st3{fill:none;stroke:#FFFFFF;stroke-width:1.4;stroke-linecap:round;stroke-linejoin:round;stroke-miterlimit:10;}
	.st4{fill:#898989;}
</style>
<path class="st2" d="M968.5,48.7c-26.8-34.9-75.5-47.3-130.3-32.7L106.8,211.5c-50.1,13.4-83.3,41.9-93.6,80.4c-10.4,38.7,4.4,80.5,41.5,117.6l535.8,535.8c29.2,29.2,61.5,44.6,93.3,44.6c49.4,0,88.6-36.2,104.9-96.9l195-730.8C995.8,117.5,990.3,77.2,968.5,48.7z M924.5,146.5l-195,730.8c-4.2,15.5-16.9,51.4-45.7,51.4c-15.1,0-32.8-9.5-50-26.7L392.8,660.9L577,476.7c12-12,12-31.4,0-43.4c-12-12-31.4-12-43.4,0L349.5,617.5L98.1,366.2c-20.7-20.7-30-42-25.7-58.4c4.3-16.1,22.7-29.6,50.3-37L854,75.3c10.2-2.7,19.9-4.1,28.6-4.1c11.7,0,27.7,2.6,37.2,14.9C929.8,99.1,931.5,120.5,924.5,146.5z M748.7,617.5c-8.1-2.1-16.5,2.8-18.7,11l-1.6,6c-2.2,8.2,2.8,16.5,11,18.7c1.3,0.3,2.6,0.5,3.9,0.5c6.8,0,13-4.6,14.8-11.5l1.6-6C761.8,628,756.9,619.7,748.7,617.5z M737.2,662c-8.2-2.2-16.5,2.8-18.7,11l-32.7,125.8c-2.1,8.2,2.8,16.5,11,18.7c1.3,0.3,2.6,0.5,3.9,0.5c6.8,0,13-4.6,14.8-11.5l32.7-125.8C750.3,672.5,745.4,664.1,737.2,662z"/></g>
</svg>