<svg id="Capa_1" enable-background="new 0 0 533.876 533.876" height="512" viewBox="0 0 533.876 533.876" width="512" xmlns="http://www.w3.org/2000/svg"><g><path d="m41.709 121.54v61.98c0 11.518 9.337 20.855 20.855 20.855s20.855-9.337 20.855-20.855v-61.98c17.745-6.294 31.828-20.376 38.122-38.122h63.022c11.518 0 20.855-9.337 20.855-20.855s-9.337-20.855-20.855-20.855h-63.023c-8.61-24.272-31.789-41.708-58.976-41.708-34.498 0-62.564 28.066-62.564 62.564 0 27.187 17.436 50.366 41.709 58.976zm20.855-79.831c11.499 0 20.855 9.355 20.855 20.855s-9.355 20.855-20.855 20.855-20.855-9.355-20.855-20.855 9.355-20.855 20.855-20.855zm285.707 41.709h64.065c6.294 17.745 20.376 31.828 38.122 38.122v61.98c0 11.518 9.337 20.855 20.855 20.855s20.855-9.337 20.855-20.855v-61.98c24.273-8.609 41.709-31.79 41.709-58.977-.001-34.497-28.067-62.563-62.565-62.563-27.187 0-50.367 17.436-58.977 41.709h-64.065c-11.518 0-20.855 9.337-20.855 20.855s9.338 20.854 20.856 20.854zm123.041-41.709c11.499 0 20.855 9.355 20.855 20.855s-9.355 20.855-20.855 20.855c-11.499 0-20.855-9.355-20.855-20.855s9.356-20.855 20.855-20.855zm-87.479 144.084-84.56 84.115 83.801 84.536c8.108 8.18 8.051 21.384-.129 29.492-4.066 4.03-9.374 6.044-14.682 6.044-5.368 0-10.734-2.059-14.811-6.173l-83.751-84.485-83.988 83.546c-4.069 4.047-9.389 6.069-14.707 6.069-5.356 0-10.71-2.05-14.786-6.148-8.123-8.166-8.088-21.37.077-29.492l84.04-83.596-83.28-84.011c-8.108-8.18-8.051-21.384.129-29.492 8.179-8.108 21.383-8.052 29.492.129l83.229 83.96 84.509-84.064c8.167-8.122 21.371-8.087 29.492.078 8.125 8.165 8.09 21.369-.075 29.492zm108.334 226.543v-64.065c0-11.518-9.337-20.855-20.855-20.855s-20.855 9.337-20.855 20.855v64.065c-17.745 6.294-31.828 20.376-38.122 38.122h-61.98c-11.518 0-20.855 9.337-20.855 20.855s9.337 20.855 20.855 20.855h61.98c8.609 24.273 31.79 41.709 58.977 41.709 34.498 0 62.564-28.066 62.564-62.564 0-27.188-17.437-50.368-41.709-58.977zm-20.855 79.831c-11.499 0-20.855-9.355-20.855-20.855s9.355-20.855 20.855-20.855c11.499 0 20.855 9.355 20.855 20.855s-9.356 20.855-20.855 20.855zm-286.749-41.709h-63.023c-6.294-17.745-20.376-31.828-38.122-38.122v-63.022c0-11.518-9.337-20.855-20.855-20.855s-20.855 9.337-20.855 20.855v63.022c-24.272 8.609-41.708 31.789-41.708 58.976 0 34.498 28.066 62.564 62.564 62.564 27.187 0 50.367-17.436 58.977-41.709h63.022c11.518 0 20.855-9.337 20.855-20.855s-9.337-20.854-20.855-20.854zm-121.999 41.709c-11.499 0-20.855-9.355-20.855-20.855s9.355-20.855 20.855-20.855 20.855 9.355 20.855 20.855-9.356 20.855-20.855 20.855zm229.399-429.603c0 14.397-11.671 26.068-26.068 26.068s-26.068-11.671-26.068-26.068c0-14.397 11.671-26.068 26.068-26.068 14.397-.001 26.068 11.671 26.068 26.068zm-26.068 382.68c-14.397 0-26.068 11.671-26.068 26.068 0 14.397 11.671 26.068 26.068 26.068s26.068-11.671 26.068-26.068c0-14.397-11.671-26.068-26.068-26.068zm205.417-202.289c-14.397 0-26.068 11.671-26.068 26.068 0 14.397 11.671 26.068 26.068 26.068s26.068-11.671 26.068-26.068c0-14.397-11.671-26.068-26.068-26.068zm-408.748 0c-14.397 0-26.068 11.671-26.068 26.068 0 14.397 11.671 26.068 26.068 26.068s26.068-11.671 26.068-26.068c0-14.397-11.671-26.068-26.068-26.068z"/></g></svg>