<svg id="Layer_1" enable-background="new 0 0 513 513" height="512" viewBox="0 0 513 513" width="512" xmlns="http://www.w3.org/2000/svg"><g><g><ellipse cx="256.5" cy="260" rx="25.029" ry="24.965" transform="matrix(.707 -.708 .708 .707 -108.722 257.748)"/></g><g><path d="m392.5 513h-272c-66.168 0-120-53.832-120-120v-144c0-66.168 53.832-120 120-120h272c66.168 0 120 53.832 120 120v144c0 66.168-53.832 120-120 120zm-272-344c-44.112 0-80 35.888-80 80v144c0 44.112 35.888 80 80 80h272c44.112 0 80-35.888 80-80v-144c0-44.112-35.888-80-80-80z"/></g><g><path d="m305.5 378h-98c-60.103 0-109-48.897-109-109 0-11.046 8.954-20 20-20s20 8.954 20 20c0 38.047 30.953 69 69 69h98c38.047 0 69-30.953 69-69 0-11.046 8.954-20 20-20s20 8.954 20 20c0 60.103-48.897 109-109 109z"/></g><g><path d="m331.5 89c-11.046 0-20-8.954-20-20 0-15.99-13.009-29-29-29h-52c-15.991 0-29 13.01-29 29 0 11.046-8.954 20-20 20s-20-8.954-20-20c0-38.047 30.953-69 69-69h52c38.047 0 69 30.953 69 69 0 11.046-8.954 20-20 20z"/></g></g></svg>