<svg id="Layer_1" enable-background="new 0 0 512 512" height="512" viewBox="0 0 512 512" width="512" xmlns="http://www.w3.org/2000/svg"><path d="m512 120v72c0 11.046-8.954 20-20 20s-20-8.954-20-20v-72c0-44.112-35.888-80-80-80h-272c-44.112 0-80 35.888-80 80v272c0 44.112 35.888 80 80 80h272c20.387 0 39.803-7.67 54.673-21.598 8.062-7.551 20.718-7.137 28.269.926s7.137 20.719-.925 28.27c-22.31 20.894-51.437 32.402-82.017 32.402h-272c-66.168 0-120-53.832-120-120v-272c0-66.168 53.832-120 120-120h272c66.168 0 120 53.832 120 120zm-80 9c0-11.046-8.954-20-20-20h-312c-11.046 0-20 8.954-20 20s8.954 20 20 20h312c11.046 0 20-8.954 20-20zm-131.71 151.149-13.324 7.995c2.611 8.158 4.034 16.842 4.034 25.856 0 9.013-1.422 17.698-4.034 25.856l13.323 7.994c9.472 5.684 12.543 17.969 6.86 27.44-3.75 6.25-10.375 9.713-17.169 9.713-3.502 0-7.049-.92-10.271-2.853l-13.57-8.142c-10.877 10.901-24.695 18.852-40.14 22.593v17.399c0 11.046-8.954 20-20 20s-20-8.954-20-20v-17.399c-15.798-3.826-29.881-12.07-40.868-23.356l-14.842 8.905c-3.221 1.933-6.769 2.853-10.271 2.853-6.795 0-13.419-3.463-17.169-9.713-5.683-9.472-2.611-21.757 6.86-27.44l15.003-9.002c-2.407-7.864-3.712-16.205-3.712-24.848s1.305-16.984 3.714-24.848l-15.004-9.002c-9.472-5.683-12.543-17.968-6.86-27.439 5.683-9.472 17.969-12.545 27.44-6.859l14.841 8.905c10.987-11.286 25.07-19.53 40.869-23.356v-17.401c0-11.046 8.954-20 20-20s20 8.954 20 20v17.399c15.446 3.741 29.264 11.692 40.141 22.593l13.569-8.142c9.472-5.687 21.757-2.611 27.44 6.859 5.683 9.473 2.612 21.758-6.86 27.44zm-49.29 33.851c0-24.813-20.187-45-45-45s-45 20.187-45 45 20.187 45 45 45 45-20.187 45-45zm243.284-39.827-40.289-39.461c-7.891-7.729-20.555-7.597-28.283.294-7.729 7.891-7.598 20.554.293 28.282l40.213 39.387c3.729 3.743 5.781 8.703 5.781 13.974 0 5.293-2.071 10.272-5.832 14.021l-40.289 40.166c-7.822 7.799-7.842 20.462-.043 28.284 3.907 3.92 9.035 5.88 14.164 5.88 5.108 0 10.217-1.945 14.121-5.836l40.289-40.166c11.343-11.309 17.591-26.349 17.591-42.35s-6.247-31.042-17.59-42.352c-.042-.04-.084-.082-.126-.123zm-144.284 60.827h63c11.046 0 20-8.954 20-20s-8.954-20-20-20h-63c-11.046 0-20 8.954-20 20s8.954 20 20 20z"/></svg>